<?xml version="1.0" encoding="UTF-8" standalone="no" ?>
<!DOCTYPE svg PUBLIC "-//W3C//DTD SVG 1.1//EN" "http://www.w3.org/Graphics/SVG/1.1/DTD/svg11.dtd">
<svg xmlns="http://www.w3.org/2000/svg" xmlns:xlink="http://www.w3.org/1999/xlink" version="1.1" width="500" height="500" viewBox="0 0 500 500" xml:space="preserve">
<desc>Created with Fabric.js 3.6.3</desc>
<defs>
</defs>
<g transform="matrix(0.8908086154593498 0 0 0.8908086154593498 250 250)"  >
<g style=""   >
		<g transform="matrix(1 0 0 1 4.263256e-14 32.91055868486604)" style=""  ><path fill="#141414" opacity="1" d="M-38.46 21.08L-33.83 16.45L-33.83-5.83L-54.97-5.83L-54.97 3.57L-43.16 3.57L-43.16 11.68L-66.57 11.68L-66.57-16.50L-43.16-16.50L-43.16-11.80L-33.83-11.80L-33.83-21.13L-38.46-25.89L-71.34-25.89L-75.97-21.13L-75.97 16.45L-71.34 21.08Z"/><path fill="#141414" opacity="1" d="M-18.40-2.34L-18.40-7.04L-9.07-16.50L5.02-16.50L5.02-2.34ZM-18.40 21.08L-18.40 7.05L5.02 7.05L5.02 21.08L14.35 21.08L14.35-25.89L-13.77-25.89L-27.79-11.73L-27.79 21.08Z"/><path fill="#141414" opacity="1" d="M63.20 21.08L63.20-25.89L53.87-25.89L53.87 5.38L30.45-25.89L21.06-25.89L21.06 21.08L30.45 21.08L30.45-10.26L53.87 21.08Z"/></g>		<g transform="matrix(4.382455378304306 0 0 4.382455378304306 -8.526513e-14 -153.69968436845903)"  >
<g style=""   >
		<g transform="matrix(1 0 0 1 0 0)" clip-path="url(#CLIPPATH_10400)"  >
<clipPath id="CLIPPATH_10400" >
	<rect transform="matrix(1 0 0 1 0 0)" x="-32.49999868073377" y="-28.50001073080807" rx="0" ry="0" width="64.99999736146754" height="57.00002146161614" />
</clipPath>
<path style="stroke: none; stroke-width: 0; stroke-dasharray: none; stroke-linecap: butt; stroke-dashoffset: 0; stroke-linejoin: miter; stroke-miterlimit: 4; fill: rgb(20,20,20); fill-rule: nonzero; opacity: 1;"  transform=" translate(-50.000000383590276, -1002.362189269192)" d="m 49.189439 974.41072 l -31.0242 26.96188 c -0.79599 0.6857 -0.89397 2.0329 -0.20556 2.8261 c 0.68842 0.7932 2.03868 0.889 2.83261 0.2009 l 29.67939 -25.8073 l 28.70989 25.7761 c 0.77782 0.7026 2.1262 0.6357 2.83034 -0.1405 c 0.70413 -0.7761 0.63708 -2.1215 -0.14074 -2.8241 l -9.35104 -8.39438 c 0 -5.68987 0 -11.37975 0 -17.06962 c -3.32352 0 -5.86391 0 -9.00703 0 c 0 2.99576 0 5.99154 0 8.9873 l -11.66534 -10.48518 c -0.39232 -0.36334 -0.80665 -0.60628 -1.34114 -0.57742 c -0.57959 0 -0.94362 0.34422 -1.31718 0.54622 z m 18.32679 5.52347 l 1.00078 0 l 0 9.48658 l -1.00078 -0.90496 z m 5.0039 19.7845 l 0 27.14911 l -45.03512 0 l 0 -26.96181 l -4.00312 3.46381 c 0 9.1641 0 18.3283 0 27.4924 c 18.75923 0 36.70002 0 53.04136 0 c 0 -9.1849 0 -18.3699 0 -27.5548 z" stroke-linecap="round" />
</g>
</g>
</g>
		<g transform="matrix(-1.8908766784809197 0 0 -1.8908766784809197 5.684342e-14 -137.51299629229658)"  >
<path style="stroke: none; stroke-width: 0; stroke-dasharray: none; stroke-linecap: butt; stroke-dashoffset: 0; stroke-linejoin: miter; stroke-miterlimit: 4; fill: rgb(0,0,0); fill-rule: evenodd; opacity: 1;"  transform=" translate(-49.99664277096369, -49.9983024457783)" d="m 46.566 57.543 l -3.3086 1.1016 l 0.60156 1.8086 c 0.23438 0.5625 0.003906 1.2109 -0.52734 1.5078 c -1.8086 0.99609 -3.3828 2.3633 -4.6211 4.0117 c -0.34766 0.46094 -0.97266 0.60547 -1.4844 0.34766 l -1.7852 -0.89062 l -1.5586 3.1172 l 1.6992 0.84766 v 0.003907 c 0.56641 0.23047 0.87109 0.84766 0.70312 1.4375 c -0.28516 0.99219 -0.46484 2.0078 -0.53906 3.0391 c -0.074219 1.0234 -0.042969 2.0547 0.10156 3.0742 c 0.078125 0.57031 -0.26172 1.1172 -0.80859 1.3008 l -1.8906 0.63281 l 1.1016 3.3086 l 1.8125 -0.60156 h -0.003906 c 0.5625 -0.23438 1.2148 -0.007813 1.5078 0.52734 c 0.99609 1.8047 2.3633 3.3789 4.0117 4.6211 c 0.46094 0.34375 0.60547 0.96875 0.35156 1.4844 l -0.89453 1.7773 l 3.1172 1.5586 l 0.84766 -1.6992 h 0.003906 c 0.23047 -0.56641 0.84766 -0.86719 1.4375 -0.69922 c 1.9844 0.57031 4.0664 0.71875 6.1133 0.4375 c 0.57031 -0.082031 1.1172 0.25781 1.3008 0.80469 l 0.62891 1.8906 l 3.3086 -1.1016 l -0.60156 -1.8086 c -0.23047 -0.5625 -0.003906 -1.2109 0.52734 -1.5078 c 1.8086 -0.99609 3.3828 -2.3633 4.625 -4.0117 c 0.34766 -0.45703 0.96875 -0.60156 1.4844 -0.34766 l 1.7852 0.89453 l 1.5586 -3.1172 l -1.6992 -0.85156 c -0.57031 -0.23047 -0.875 -0.85156 -0.71094 -1.4414 c 0.57422 -1.9844 0.72266 -4.0664 0.4375 -6.1094 c -0.082031 -0.57031 0.25781 -1.1211 0.80859 -1.3008 l 1.8906 -0.62891 l -1.1016 -3.3086 l -1.8125 0.60156 h 0.003906 c -0.56641 0.23047 -1.2148 0.003906 -1.5078 -0.53125 c -1 -1.8047 -2.3672 -3.3789 -4.0117 -4.6211 c -0.46094 -0.34766 -0.60547 -0.96875 -0.35156 -1.4844 l 0.89453 -1.7852 l -3.1133 -1.5547 l -0.84766 1.6992 c -0.23047 0.56641 -0.84766 0.87109 -1.4375 0.70703 c -1.9844 -0.57422 -4.0703 -0.72266 -6.1133 -0.44141 c -0.57422 0.082031 -1.1211 -0.25781 -1.3008 -0.80469 l -0.62891 -1.8906 z m -5.1914 -0.78125 l 5.5742 -1.8633 c 0.625 -0.20313 1.2969 0.13281 1.5039 0.75781 l 0.69922 2.1055 v 0.003906 c 0.85938 -0.070313 1.7227 -0.074219 2.582 -0.011719 c 0.86328 0.058594 1.7188 0.1875 2.5625 0.375 l 1 -1.9883 c 0.14062 -0.28125 0.39062 -0.49609 0.69141 -0.59766 c 0.30078 -0.10156 0.625 -0.078125 0.91016 0.066406 l 5.2539 2.625 h -0.003906 c 0.28516 0.14062 0.5 0.38672 0.60156 0.6875 c 0.097656 0.30078 0.074219 0.62891 -0.066406 0.91016 l -0.99609 1.9922 c 1.3164 1.1211 2.457 2.4336 3.3789 3.8945 l 2.1133 -0.69922 v -0.003906 c 0.625 -0.20703 1.3008 0.13281 1.5078 0.75781 l 1.8555 5.5703 c 0.10156 0.30078 0.078125 0.62891 -0.066407 0.91016 c -0.14062 0.28516 -0.39062 0.5 -0.69141 0.59766 l -2.1055 0.69922 c 0.14062 1.7227 0.015624 3.457 -0.36328 5.1445 l 1.9883 0.99219 v 0.003906 c 0.58984 0.29297 0.82812 1.0078 0.53125 1.5977 l -2.625 5.2539 c -0.14063 0.28125 -0.39063 0.49609 -0.69141 0.59766 c -0.29688 0.097656 -0.625 0.074219 -0.91016 -0.066406 l -1.9883 -0.99609 c -1.1211 1.3164 -2.4336 2.457 -3.8945 3.3828 l 0.69922 2.1133 v -0.003907 c 0.20703 0.625 -0.12891 1.3008 -0.75391 1.5078 l -5.5703 1.8594 c -0.30078 0.097656 -0.62891 0.074219 -0.91016 -0.066406 c -0.28516 -0.14453 -0.5 -0.39062 -0.59766 -0.69141 l -0.69922 -2.1055 c -1.7227 0.13672 -3.457 0.011719 -5.1445 -0.36719 l -0.99609 1.9922 c -0.14062 0.28516 -0.39062 0.5 -0.69141 0.59766 c -0.30078 0.10156 -0.625 0.078125 -0.91016 -0.0625 l -5.2539 -2.6328 c -0.58594 -0.29687 -0.82813 -1.0117 -0.53125 -1.6016 l 1 -1.9883 c -0.66016 -0.5625 -1.2734 -1.1719 -1.8398 -1.8242 s -1.0781 -1.3438 -1.5391 -2.0703 l -2.1133 0.69922 c -0.30078 0.097656 -0.62891 0.074219 -0.91016 -0.066406 c -0.28516 -0.14453 -0.49609 -0.39062 -0.59766 -0.69141 l -1.8594 -5.5586 c -0.10156 -0.30078 -0.078124 -0.62891 0.066407 -0.91016 c 0.14062 -0.28125 0.39062 -0.49609 0.69141 -0.59766 l 2.1055 -0.69922 c -0.070313 -0.85938 -0.074219 -1.7227 -0.011719 -2.582 c 0.058594 -0.86328 0.1875 -1.7188 0.375 -2.5625 l -1.9883 -0.99219 c -0.28125 -0.14453 -0.49609 -0.39062 -0.59766 -0.69141 c -0.097657 -0.30078 -0.074219 -0.62891 0.066406 -0.91016 l 2.625 -5.2539 c 0.29297 -0.58984 1.0117 -0.82812 1.5977 -0.53516 l 1.9883 1 h 0.003907 c 0.55859 -0.65625 1.1719 -1.2734 1.8242 -1.8398 c 0.64844 -0.56641 1.3398 -1.0781 2.0703 -1.5391 l -0.69922 -2.1133 h -0.003906 c -0.20312 -0.625 0.13672 -1.2969 0.76172 -1.5039 z m 12.984 10.484 c 3.6602 1.832 5.5156 5.9922 4.4375 9.9375 c -1.082 3.9453 -4.7969 6.5781 -8.8789 6.2891 c -4.082 -0.28906 -7.3906 -3.418 -7.9023 -7.4766 c -0.51172 -4.0625 1.9102 -7.918 5.793 -9.2109 c 2.1562 -0.72656 4.5156 -0.55859 6.5508 0.46094 z m -7.3008 -2.7266 c 4.9609 -1.6523 10.398 0.42969 12.988 4.9727 c 2.5898 4.543 1.6094 10.281 -2.3398 13.707 c -3.9531 3.4258 -9.7734 3.5859 -13.902 0.37891 c -4.1328 -3.2031 -5.4219 -8.8789 -3.0859 -13.559 c 1.2969 -2.6055 3.5781 -4.5859 6.3398 -5.5 z m -10.332 -57.121 h -5.4375 v 3.0547 c 0 0.57812 -0.41406 1.0703 -0.98047 1.1758 c -2.7344 0.51172 -5.3359 1.582 -7.6328 3.1523 c -0.48047 0.37109 -1.1602 0.32812 -1.5859 -0.10156 l -2.1602 -2.1602 l -3.8438 3.8438 l 2.1602 2.1602 h -0.003906 c 0.40625 0.41016 0.46484 1.0469 0.14453 1.5195 c -1.5742 2.2891 -2.6562 4.8828 -3.1797 7.6094 c -0.0625 0.60938 -0.57812 1.0742 -1.1914 1.0742 h -3.0586 v 5.4375 h 3.0547 c 0.57422 0 1.0703 0.41016 1.1758 0.97656 c 0.50781 2.7383 1.582 5.3359 3.1484 7.6367 c 0.37109 0.47656 0.32812 1.1562 -0.097657 1.5859 l -2.1602 2.168 l 3.8438 3.8438 l 2.1602 -2.1602 h 0.003907 c 0.40625 -0.40625 1.043 -0.46484 1.5195 -0.14453 c 2.2891 1.5742 4.8789 2.6562 7.6094 3.1797 c 0.60938 0.066406 1.0703 0.57812 1.0703 1.1914 v 3.0586 h 5.4375 v -3.0586 c 0 -0.57422 0.41406 -1.0703 0.98047 -1.1719 c 1.375 -0.25781 2.7188 -0.65625 4.0078 -1.1914 c 1.2734 -0.53125 2.4883 -1.1875 3.6289 -1.9609 c 0.47656 -0.37109 1.1562 -0.32813 1.582 0.10156 l 2.1602 2.1602 l 3.8438 -3.8438 l -2.1602 -2.1602 v -0.003906 c -0.40234 -0.40625 -0.46094 -1.043 -0.14062 -1.5156 c 1.5742 -2.293 2.6562 -4.8828 3.1797 -7.6133 c 0.058593 -0.61328 0.57812 -1.0781 1.1953 -1.0781 h 3.0547 v -5.4336 h -3.0547 c -0.57812 0 -1.0703 -0.41406 -1.1758 -0.98047 c -0.50781 -2.7344 -1.582 -5.3359 -3.1484 -7.6367 c -0.37109 -0.47656 -0.32812 -1.1562 0.097657 -1.582 l 2.1602 -2.1602 l -3.8438 -3.8516 l -2.1641 2.1641 v -0.007813 c -0.40625 0.40625 -1.043 0.46484 -1.5156 0.14062 c -1.1562 -0.79297 -2.3945 -1.4648 -3.6875 -2 c -1.2656 -0.52344 -2.5781 -0.91797 -3.9219 -1.1719 c -0.60938 -0.066406 -1.0703 -0.57812 -1.0703 -1.1914 v -3.0547 z m -6.6367 -2.3984 h 7.832 c 0.66406 0 1.1992 0.53906 1.1992 1.1992 v 3.2852 c 2.4102 0.55469 4.707 1.5078 6.8008 2.8203 l 2.3242 -2.3242 c 0.46875 -0.46875 1.2266 -0.46875 1.6953 0 l 5.5391 5.5391 l -0.003907 -0.003906 c 0.46875 0.46875 0.46875 1.2266 0 1.6953 l -2.3203 2.3203 c 1.3086 2.0977 2.2578 4.3945 2.8164 6.8008 h 3.2852 c 0.66016 0 1.1992 0.53906 1.1992 1.1992 v 7.832 c 0 0.66406 -0.53906 1.2031 -1.1992 1.2031 h -3.2852 c -0.55859 2.4062 -1.5117 4.7031 -2.8203 6.7969 l 2.3203 2.3242 c 0.46875 0.46875 0.46875 1.2266 0 1.6953 l -5.5391 5.5391 l 0.003906 -0.003906 c -0.46875 0.46875 -1.2266 0.46875 -1.6953 0 l -2.3203 -2.3203 c -1.0469 0.65234 -2.1484 1.2188 -3.2891 1.6914 c -1.1367 0.47266 -2.3125 0.84766 -3.5117 1.125 v 3.2852 c 0 0.66016 -0.53906 1.1992 -1.1992 1.1992 h -7.832 c -0.66406 0 -1.1992 -0.53906 -1.1992 -1.1992 v -3.2891 c -2.4062 -0.55859 -4.7031 -1.5078 -6.8008 -2.8164 l -2.3203 2.3203 c -0.46875 0.46875 -1.2266 0.46875 -1.6953 0 l -5.5391 -5.5391 l 0.003906 0.003906 c -0.46875 -0.46875 -0.46875 -1.2266 0 -1.6953 l 2.3242 -2.3242 h -0.003906 c -0.65234 -1.0469 -1.2188 -2.1445 -1.6914 -3.2852 c -0.47266 -1.1367 -0.84766 -2.3125 -1.125 -3.5117 h -3.2852 c -0.66016 0 -1.1992 -0.53906 -1.1992 -1.2031 v -7.8281 c 0 -0.66406 0.53906 -1.1992 1.1992 -1.1992 h 3.2852 c 0.55469 -2.4062 1.5078 -4.707 2.8164 -6.8008 l -2.3203 -2.3203 c -0.46875 -0.46875 -0.46875 -1.2266 0 -1.6953 l 5.5391 -5.5391 h -0.003906 c 0.46875 -0.46484 1.2266 -0.46484 1.6953 0 l 2.3242 2.3242 c 2.0938 -1.3086 4.3906 -2.2617 6.7969 -2.8203 v -3.2812 c 0 -0.66016 0.53906 -1.1992 1.1992 -1.1992 z m 12.285 18.078 c 3.9922 3.9922 4.6055 10.25 1.4688 14.941 c -3.1328 4.6953 -9.1484 6.5195 -14.367 4.3594 c -5.2148 -2.1602 -8.1758 -7.7031 -7.0742 -13.238 c 1.1016 -5.5391 5.957 -9.5273 11.605 -9.5273 c 3.1367 -0.003906 6.1484 1.2422 8.3672 3.4648 z m -8.3672 -5.8594 c 6.7852 0 12.629 4.7969 13.949 11.453 c 1.3242 6.6562 -2.2383 13.32 -8.5078 15.918 s -13.504 0.40234 -17.273 -5.2383 c -3.7695 -5.6445 -3.0312 -13.168 1.7695 -17.965 c 2.6641 -2.6719 6.2852 -4.1719 10.062 -4.168 z m 35.359 15.199 l 0.71484 1.2734 c 0.28906 0.51562 0.91016 0.74219 1.4648 0.53516 c 1.5898 -0.53516 3.2734 -0.73047 4.9453 -0.58203 c 0.57422 0.050781 1.1016 -0.3125 1.2578 -0.86719 l 0.39844 -1.4062 l 2.4062 0.67578 l -0.39844 1.4062 v 0.003906 c -0.16016 0.56641 0.12109 1.168 0.65625 1.4102 c 1.5039 0.75 2.832 1.7969 3.9102 3.082 c 0.36719 0.44531 1 0.5625 1.5 0.28125 l 1.2773 -0.71094 l 1.2227 2.1797 l -1.2734 0.71484 c -0.51562 0.28906 -0.74219 0.91406 -0.53516 1.4648 c 0.53516 1.5938 0.73047 3.2773 0.58203 4.9453 c -0.050782 0.57422 0.3125 1.1016 0.86719 1.2578 l 1.4062 0.39844 l -0.67578 2.4062 l -1.4062 -0.39844 h -0.003906 c -0.56641 -0.15625 -1.1641 0.12109 -1.4102 0.66016 c -0.75 1.5 -1.7969 2.832 -3.082 3.9062 c -0.44141 0.37109 -0.55859 1 -0.28125 1.5 l 0.71484 1.2734 l -2.1797 1.2227 l -0.71484 -1.2734 h 0.003906 c -0.28906 -0.51172 -0.91406 -0.73828 -1.4648 -0.53125 c -1.5938 0.53125 -3.2773 0.73047 -4.9492 0.57812 c -0.57031 -0.050781 -1.0977 0.3125 -1.2539 0.86719 l -0.39844 1.4062 l -2.4062 -0.67578 l 0.39844 -1.4062 c 0.15625 -0.57031 -0.12109 -1.1719 -0.66016 -1.4141 c -1.5 -0.75 -2.832 -1.7969 -3.9102 -3.082 c -0.36719 -0.44531 -0.99609 -0.5625 -1.5 -0.28125 l -1.2734 0.71484 l -1.2227 -2.1797 l 1.2734 -0.71484 v 0.003906 c 0.51172 -0.29297 0.73828 -0.91016 0.53125 -1.4609 c -0.53125 -1.5938 -0.72656 -3.2773 -0.57813 -4.9492 c 0.050782 -0.57031 -0.3125 -1.0977 -0.86719 -1.2539 l -1.4102 -0.39844 l 0.67578 -2.4062 l 1.4062 0.39844 h 0.003906 c 0.56641 0.16016 1.1641 -0.12109 1.4102 -0.65625 c 0.74609 -1.5039 1.7969 -2.832 3.082 -3.9102 c 0.44141 -0.36719 0.55859 -0.99609 0.27734 -1.5 l -0.71484 -1.2734 l 2.1797 -1.2227 z m -4.3906 -0.27734 l 4.2656 -2.3945 c 0.57422 -0.32031 1.3008 -0.11328 1.625 0.46094 l 0.82812 1.4805 l 0.003907 -0.003906 c 1.3047 -0.34766 2.6562 -0.50781 4.0117 -0.47266 l 0.46094 -1.6367 h -0.003906 c 0.17969 -0.63281 0.83984 -1.0039 1.4727 -0.82812 l 4.707 1.3242 h 0.003906 c 0.63281 0.17969 1.0039 0.83984 0.82813 1.4766 l -0.46094 1.6367 v -0.003906 c 0.58594 0.33984 1.1484 0.72266 1.6797 1.1406 c 0.53516 0.41797 1.0352 0.87109 1.5 1.3594 l 1.4805 -0.83203 h 0.003906 c 0.57422 -0.3125 1.293 -0.10938 1.6172 0.45703 l 2.3945 4.2656 c 0.32031 0.57813 0.11328 1.3047 -0.46094 1.6289 l -1.4805 0.82812 c 0.35156 1.3086 0.50781 2.6602 0.47656 4.0117 l 1.6367 0.46094 c 0.63281 0.17969 1 0.83984 0.82812 1.4727 l -1.3242 4.707 c -0.17969 0.63672 -0.83984 1.0039 -1.4727 0.82812 l -1.6367 -0.46094 v 0.003906 c -0.67969 1.168 -1.5195 2.2383 -2.5 3.1719 l 0.83203 1.4805 h -0.003907 c 0.32422 0.57812 0.11719 1.3047 -0.45703 1.6289 l -4.2617 2.3945 c -0.57812 0.32031 -1.3047 0.11328 -1.6289 -0.46094 l -0.82812 -1.4805 c -0.65234 0.17578 -1.3164 0.30078 -1.9883 0.38281 c -0.67188 0.078125 -1.3477 0.10938 -2.0234 0.09375 l -0.46094 1.6367 c -0.17969 0.63281 -0.83594 1.0039 -1.4727 0.82812 l -4.707 -1.3281 c -0.63281 -0.17969 -1.0039 -0.83594 -0.82813 -1.4727 l 0.46094 -1.6367 c -1.1719 -0.67578 -2.2383 -1.5195 -3.1719 -2.5 l -1.4805 0.83203 h -0.003906 c -0.57422 0.32031 -1.3047 0.11719 -1.6289 -0.46094 l -2.3906 -4.2617 c -0.32031 -0.57422 -0.11719 -1.3008 0.45703 -1.625 l 1.4805 -0.82813 v -0.003906 c -0.34766 -1.3047 -0.50781 -2.6562 -0.47656 -4.0078 l -1.6367 -0.46094 h 0.003906 c -0.63672 -0.17969 -1.0039 -0.83984 -0.82812 -1.4766 l 1.3242 -4.707 c 0.17969 -0.63281 0.83594 -1 1.4727 -0.82422 l 1.6367 0.46094 v -0.003906 c 0.67578 -1.168 1.5195 -2.2383 2.5 -3.1719 l -0.83203 -1.4805 c -0.32031 -0.57812 -0.11719 -1.3047 0.45703 -1.6289 z m 12.309 6.9141 c -1.7539 -0.49609 -3.6289 -0.28125 -5.2266 0.59766 c -0.03125 0.023437 -0.0625 0.042968 -0.097656 0.058594 c -3.2891 1.8789 -4.4609 6.0508 -2.6328 9.3672 c 0.019531 0.035156 0.039063 0.066406 0.058594 0.10156 c 1.8789 3.2852 6.0469 4.457 9.3672 2.6328 c 0.035156 -0.019531 0.066406 -0.039062 0.10156 -0.058594 h -0.003907 c 3.2891 -1.8828 4.4609 -6.0508 2.6328 -9.3672 c -0.019531 -0.035157 -0.039063 -0.066407 -0.058594 -0.10156 c -0.90234 -1.582 -2.3906 -2.7422 -4.1445 -3.2344 z m -6.4414 -1.4531 c -4.4922 2.5195 -6.0938 8.2031 -3.5781 12.699 v 0.007813 v -0.003906 c 2.5195 4.4922 8.207 6.0938 12.699 3.5781 h 0.007812 c 4.4922 -2.5195 6.0938 -8.207 3.5742 -12.699 c -2.5195 -4.4922 -8.207 -6.0938 -12.699 -3.5742 z" stroke-linecap="round" />
</g>
		<g transform="matrix(3.4559298752254883 0 0 3.311421039355198 0 124.06695698924719)"  >
<path style="stroke: none; stroke-width: 0; stroke-dasharray: none; stroke-linecap: butt; stroke-dashoffset: 0; stroke-linejoin: miter; stroke-miterlimit: 4; fill: rgb(0,0,0); fill-rule: nonzero; opacity: 1;"  transform=" translate(-50.04733126788991, -49.901129999999995)" d="m 11.301 62.602 c -0.69922 0 -1.3008 0.60156 -1.3008 1.3008 c 0 0.69922 0.60156 1.3008 1.3008 1.3008 h 10 c 0.69922 0 1.3008 -0.60156 1.3008 -1.3008 v -2.5 c 2.1016 0.30078 4.1016 0.89844 6 1.6992 l 10.102 4.6016 c 1.3984 0.60156 2.8984 0.89844 4.3984 0.89844 s 3 -0.30078 4.3984 -0.89844 l 39 -17.898 c 1.5 -0.69922 2.6016 -1.8984 3.1992 -3.3984 c 0.60156 -1.5 0.5 -3.1992 -0.19922 -4.6992 s -1.8984 -2.6016 -3.3984 -3.1992 c -1.5 -0.60156 -3.1992 -0.5 -4.6992 0.19922 l -20.602 9.293 c -0.10156 -0.60156 -0.30078 -1.1016 -0.5 -1.6992 c -0.69922 -1.5 -1.8984 -2.6016 -3.3984 -3.1016 l -24.5 -8.6992 c -1.5 -0.39844 -3 -0.5 -4.6016 -0.5 c -1.8008 0.10156 -3.5 0.5 -5.1992 1.1992 v -2.6992 c 0 -0.69922 -0.60156 -1.3008 -1.3008 -1.3008 h -10 c -0.69922 0 -1.3008 0.60156 -1.3008 1.3008 s 0.60156 1.3008 1.3008 1.3008 h 8.6992 v 28.602 l -8.6992 -0.003906 z m 11.301 -24.301 c 1.6992 -0.89844 3.5 -1.3984 5.3008 -1.5 c 1.3008 -0.10156 2.5 0.10156 3.6992 0.30078 l 24.398 8.5977 c 0.89844 0.30078 1.6016 0.89844 2 1.8008 c 0.39844 0.89844 0.5 1.8008 0.19922 2.6992 c -0.60156 1.8008 -2.6992 2.8008 -4.3984 2.1992 l -16.102 -5.6016 c -0.69922 -0.19922 -1.3984 0.10156 -1.6016 0.80078 c -0.19922 0.69922 0.10156 1.3984 0.80078 1.6016 c 0 0 15.898 5.5 16.102 5.5 c 0.60156 0.19922 1.3008 0.30078 1.8984 0.30078 c 2.5 0 5 -1.6016 5.8008 -4.1016 v -0.10156 l 21.801 -9.8984 c 0.89844 -0.39844 1.8008 -0.39844 2.6992 -0.10156 c 0.89844 0.30078 1.6016 1 2 1.8008 c 0.39844 0.89844 0.39844 1.8008 0.10156 2.6992 c -0.30078 0.89844 -1 1.6016 -1.8008 2 l -39 17.898 c -2.1016 0.89844 -4.5 0.89844 -6.6016 0 l -10.102 -4.6016 c -2.1992 -1 -4.6016 -1.6992 -7.1016 -2 l 0.003907 -20.293 z" stroke-linecap="round" />
</g>
		<g transform="matrix(1 0 0 1 0 255.83870967741936)" style=""  ><path fill="#000000" opacity="1" d="M-255.78 1.46L-255.78-0.98L-246.09-0.98L-246.09 9.86Q-250.27 12.89-256.49 12.89L-256.49 12.89Q-260.08 12.89-263.01 11.39Q-265.95 9.89-267.80 6.82Q-269.65 3.75-269.65-0.43L-269.65-0.43Q-269.65-6.26-265.71-10.00Q-261.77-13.75-256.06-13.75L-256.06-13.75Q-250.58-13.75-246.60-11.14L-246.60-11.14L-247.87-8.82Q-251.37-11.22-256.06-11.22L-256.06-11.22Q-260.87-11.22-263.78-8.19Q-266.70-5.16-266.70-0.43L-266.70-0.43Q-266.70 4.42-263.66 7.37Q-260.63 10.33-256.10 10.33L-256.10 10.33Q-252.00 10.33-248.89 8.52L-248.89 8.52L-248.89 1.46L-255.78 1.46Z"/><path fill="#000000" opacity="1" d="M-222.93 3.16L-222.93 3.16L-239.47 3.16Q-239.28 6.70-236.97 8.50Q-234.67 10.29-231.24 10.29L-231.24 10.29Q-227.14 10.29-224.38 8.83L-224.38 8.83L-223.56 11.31Q-226.75 12.77-231.40 12.77L-231.40 12.77Q-236.64 12.77-239.49 10.03Q-242.35 7.29-242.35 2.57L-242.35 2.57Q-242.35-2.00-239.32-4.86Q-236.28-7.72-231.67-7.72L-231.67-7.72Q-227.18-7.72-224.90-5.51Q-222.61-3.30-222.61 0.36L-222.61 0.36Q-222.61 1.90-222.93 3.16ZM-239.43 0.75L-239.43 0.75L-225.33 0.75Q-225.33-2.48-226.92-3.88Q-228.52-5.27-231.99-5.27L-231.99-5.27Q-234.82-5.27-236.97-3.68Q-239.12-2.08-239.43 0.75Z"/><path fill="#000000" opacity="1" d="M-219.46 10.84L-219.46-16.38L-216.62-16.38L-216.62-5.71Q-213.43-7.72-209.17-7.72L-209.17-7.72Q-204.49-7.72-201.96-5.21Q-199.44-2.71-199.44 2.17L-199.44 2.17Q-199.44 6.98-202.69 9.88Q-205.94 12.77-211.07 12.77L-211.07 12.77Q-215.83 12.77-219.46 10.84L-219.46 10.84ZM-216.62-3.11L-216.62-3.11L-216.62 9.07Q-214.14 10.25-211.03 10.25L-211.03 10.25Q-207.05 10.25-204.68 8.10Q-202.32 5.95-202.32 2.13L-202.32 2.13Q-202.32-1.53-204.15-3.42Q-205.98-5.31-209.53-5.31L-209.53-5.31Q-213.47-5.31-216.62-3.11Z"/><path fill="#000000" opacity="1" d="M-194.08-3.74L-194.08-3.74L-194.83-6.10Q-191.05-7.72-186.76-7.72Q-182.46-7.72-180.45-6.10Q-178.44-4.49-178.44-0.98L-178.44-0.98L-178.44 7.57Q-178.44 9.15-177.89 9.74Q-177.34 10.33-175.80 10.37L-175.80 10.37L-175.80 12.38Q-176.87 12.77-177.97 12.77L-177.97 12.77Q-179.19 12.77-179.84 12.00Q-180.49 11.23-180.65 9.38L-180.65 9.38Q-183.80 12.77-189.40 12.77L-189.40 12.77Q-192.82 12.77-194.52 11.23Q-196.21 9.70-196.21 6.90L-196.21 6.90Q-196.21 4.30-194.52 2.33L-194.52 2.33Q-189.59 0.83-181.24 0.60L-181.24 0.60L-181.24-0.86Q-181.24-3.19-182.50-4.21Q-183.76-5.23-186.95-5.23L-186.95-5.23Q-190.50-5.23-194.08-3.74ZM-181.24 7.26L-181.24 7.26L-181.24 2.68Q-187.90 2.80-192.27 3.95L-192.27 3.95Q-193.30 5.13-193.30 6.66L-193.30 6.66Q-193.30 10.29-189.12 10.29L-189.12 10.29Q-184.31 10.29-181.24 7.26ZM-192.92-13.73Q-192.35-14.26-191.44-14.26Q-190.54-14.26-189.97-13.73Q-189.40-13.19-189.40-12.29L-189.40-12.29Q-189.40-11.42-189.95-10.87Q-190.50-10.32-191.44-10.32L-191.44-10.32Q-192.35-10.32-192.92-10.87Q-193.49-11.42-193.49-12.29L-193.49-12.29Q-193.49-13.19-192.92-13.73ZM-184.21-13.73Q-183.64-14.26-182.74-14.26Q-181.83-14.26-181.26-13.73Q-180.69-13.19-180.69-12.29L-180.69-12.29Q-180.69-11.42-181.24-10.87Q-181.79-10.32-182.74-10.32L-182.74-10.32Q-183.64-10.32-184.21-10.87Q-184.79-11.42-184.79-12.29L-184.79-12.29Q-184.79-13.19-184.21-13.73Z"/><path fill="#000000" opacity="1" d="M-172.57 4.18L-172.57-7.32L-169.74-7.32L-169.74 4.22Q-169.74 7.14-168.38 8.73Q-167.02 10.33-164.46 10.33L-164.46 10.33Q-161.78 10.33-160.02 9.26Q-158.27 8.20-156.85 5.92L-156.85 5.92L-156.85-7.32L-154.01-7.32L-154.01 12.38L-156.38 12.38L-156.69 8.91Q-159.49 12.77-164.46 12.77L-164.46 12.77Q-172.57 12.77-172.57 4.18L-172.57 4.18Z"/><path fill="#000000" opacity="1" d="M-132.94-5.75L-132.94-16.38L-130.10-16.38L-130.10 11.55Q-134.35 12.77-139.83 12.77L-139.83 12.77Q-144.60 12.77-147.34 10.17Q-150.07 7.57-150.07 2.57L-150.07 2.57Q-150.07-2.00-147.10-4.86Q-144.13-7.72-139.55-7.72L-139.55-7.72Q-135.85-7.72-132.94-5.75L-132.94-5.75ZM-132.94 9.50L-132.94 9.50L-132.94-2.87Q-135.77-5.27-139.24-5.27L-139.24-5.27Q-142.63-5.27-144.89-3.23Q-147.16-1.18-147.16 2.53L-147.16 2.53Q-147.16 6.39-144.93 8.32Q-142.71 10.25-139.00 10.25L-139.00 10.25Q-135.54 10.25-132.94 9.50Z"/><path fill="#000000" opacity="1" d="M-106.73 3.16L-106.73 3.16L-123.28 3.16Q-123.09 6.70-120.78 8.50Q-118.48 10.29-115.05 10.29L-115.05 10.29Q-110.95 10.29-108.19 8.83L-108.19 8.83L-107.36 11.31Q-110.56 12.77-115.21 12.77L-115.21 12.77Q-120.45 12.77-123.30 10.03Q-126.16 7.29-126.16 2.57L-126.16 2.57Q-126.16-2.00-123.12-4.86Q-120.09-7.72-115.48-7.72L-115.48-7.72Q-110.99-7.72-108.70-5.51Q-106.42-3.30-106.42 0.36L-106.42 0.36Q-106.42 1.90-106.73 3.16ZM-123.24 0.75L-123.24 0.75L-109.14 0.75Q-109.14-2.48-110.73-3.88Q-112.33-5.27-115.80-5.27L-115.80-5.27Q-118.63-5.27-120.78-3.68Q-122.93-2.08-123.24 0.75Z"/><path fill="#000000" opacity="1" d="M-101.06-3.74L-101.06-3.74L-101.81-6.10Q-98.03-7.72-93.73-7.72Q-89.44-7.72-87.43-6.10Q-85.42-4.49-85.42-0.98L-85.42-0.98L-85.42 7.57Q-85.42 9.15-84.87 9.74Q-84.32 10.33-82.78 10.37L-82.78 10.37L-82.78 12.38Q-83.84 12.77-84.95 12.77L-84.95 12.77Q-86.17 12.77-86.82 12.00Q-87.47 11.23-87.63 9.38L-87.63 9.38Q-90.78 12.77-96.37 12.77L-96.37 12.77Q-99.80 12.77-101.49 11.23Q-103.19 9.70-103.19 6.90L-103.19 6.90Q-103.19 4.30-101.49 2.33L-101.49 2.33Q-96.57 0.83-88.22 0.60L-88.22 0.60L-88.22-0.86Q-88.22-3.19-89.48-4.21Q-90.74-5.23-93.93-5.23L-93.93-5.23Q-97.48-5.23-101.06-3.74ZM-88.22 7.26L-88.22 7.26L-88.22 2.68Q-94.88 2.80-99.25 3.95L-99.25 3.95Q-100.27 5.13-100.27 6.66L-100.27 6.66Q-100.27 10.29-96.10 10.29L-96.10 10.29Q-91.29 10.29-88.22 7.26Z"/><path fill="#000000" opacity="1" d="M-79.55 4.18L-79.55-7.32L-76.71-7.32L-76.71 4.22Q-76.71 7.14-75.35 8.73Q-73.99 10.33-71.43 10.33L-71.43 10.33Q-68.75 10.33-67.00 9.26Q-65.25 8.20-63.83 5.92L-63.83 5.92L-63.83-7.32L-60.99-7.32L-60.99 12.38L-63.36 12.38L-63.67 8.91Q-66.47 12.77-71.43 12.77L-71.43 12.77Q-79.55 12.77-79.55 4.18L-79.55 4.18Z"/><path fill="#000000" opacity="1" d="M-54.45-4.80L-57.64-5.23L-57.64-6.38L-55.20-7.87L-52.48-12.17L-51.61-12.05L-51.61-7.32L-43.54-7.32L-43.66-4.80L-51.61-5.08L-51.61 5.68Q-51.61 10.25-47.48 10.25L-47.48 10.25Q-45.11 10.25-43.10 9.03L-43.10 9.03L-42.04 11.27Q-44.44 12.77-47.79 12.77L-47.79 12.77Q-54.45 12.77-54.45 5.72L-54.45 5.72L-54.45-4.80Z"/><path fill="#000000" opacity="1" d="M-22.14-4.90Q-19.03-2.08-19.03 2.53Q-19.03 7.14-22.14 9.95Q-25.26 12.77-29.94 12.77Q-34.63 12.77-37.75 9.95Q-40.86 7.14-40.86 2.53Q-40.86-2.08-37.75-4.90Q-34.63-7.72-29.94-7.72Q-25.26-7.72-22.14-4.90ZM-35.76-3.19Q-37.98-1.02-37.98 2.53Q-37.98 6.07-35.76 8.24Q-33.53 10.41-29.94 10.41Q-26.36 10.41-24.13 8.24Q-21.91 6.07-21.91 2.53Q-21.91-1.02-24.13-3.19Q-26.36-5.35-29.94-5.35Q-33.53-5.35-35.76-3.19Z"/><path fill="#000000" opacity="1" d="M-15.09 12.38L-15.09-7.32L-12.77-7.32L-12.49-3.70Q-9.65-7.72-4.81-7.72L-4.81-7.72Q0.00-7.72 1.97-3.82L1.97-3.82Q5.16-7.72 10.05-7.72L10.05-7.72Q13.99-7.72 15.88-5.59Q17.77-3.46 17.77 0.87L17.77 0.87L17.77 12.38L14.93 12.38L14.93 0.95Q14.93-5.27 10.05-5.27L10.05-5.27Q5.59-5.27 2.72-1.33L2.72-1.33Q2.92-0.15 2.92 0.87L2.92 0.87L2.92 12.38L0.08 12.38L0.08 0.91Q0.08-5.27-4.81-5.27L-4.81-5.27Q-9.65-5.27-12.25-1.02L-12.25-1.02L-12.25 12.38L-15.09 12.38Z"/><path fill="#000000" opacity="1" d="M24.70-3.74L24.70-3.74L23.96-6.10Q27.74-7.72 32.03-7.72Q36.33-7.72 38.34-6.10Q40.35-4.49 40.35-0.98L40.35-0.98L40.35 7.57Q40.35 9.15 40.90 9.74Q41.45 10.33 42.99 10.37L42.99 10.37L42.99 12.38Q41.92 12.77 40.82 12.77L40.82 12.77Q39.60 12.77 38.95 12.00Q38.30 11.23 38.14 9.38L38.14 9.38Q34.99 12.77 29.39 12.77L29.39 12.77Q25.96 12.77 24.27 11.23Q22.58 9.70 22.58 6.90L22.58 6.90Q22.58 4.30 24.27 2.33L24.27 2.33Q29.20 0.83 37.55 0.60L37.55 0.60L37.55-0.86Q37.55-3.19 36.29-4.21Q35.03-5.23 31.84-5.23L31.84-5.23Q28.29-5.23 24.70-3.74ZM37.55 7.26L37.55 7.26L37.55 2.68Q30.89 2.80 26.52 3.95L26.52 3.95Q25.49 5.13 25.49 6.66L25.49 6.66Q25.49 10.29 29.67 10.29L29.67 10.29Q34.48 10.29 37.55 7.26Z"/><path fill="#000000" opacity="1" d="M47.24-4.80L44.05-5.23L44.05-6.38L46.49-7.87L49.21-12.17L50.08-12.05L50.08-7.32L58.15-7.32L58.04-4.80L50.08-5.08L50.08 5.68Q50.08 10.25 54.21 10.25L54.21 10.25Q56.58 10.25 58.59 9.03L58.59 9.03L59.65 11.27Q57.25 12.77 53.90 12.77L53.90 12.77Q47.24 12.77 47.24 5.72L47.24 5.72L47.24-4.80Z"/><path fill="#000000" opacity="1" d="M62.80 12.38L62.80-7.32L65.64-7.32L65.64 12.38L62.80 12.38ZM62.59-15.06Q63.20-15.72 64.22-15.72Q65.25-15.72 65.86-15.06Q66.47-14.41 66.47-13.47L66.47-13.47Q66.47-12.56 65.84-11.89Q65.21-11.22 64.22-11.22Q63.24-11.22 62.61-11.89Q61.98-12.56 61.98-13.47L61.98-13.47Q61.98-14.41 62.59-15.06Z"/><path fill="#000000" opacity="1" d="M88.30-4.90Q91.41-2.08 91.41 2.53Q91.41 7.14 88.30 9.95Q85.18 12.77 80.49 12.77Q75.81 12.77 72.69 9.95Q69.58 7.14 69.58 2.53Q69.58-2.08 72.69-4.90Q75.81-7.72 80.49-7.72Q85.18-7.72 88.30-4.90ZM74.68-3.19Q72.46-1.02 72.46 2.53Q72.46 6.07 74.68 8.24Q76.91 10.41 80.49 10.41Q84.08 10.41 86.31 8.24Q88.53 6.07 88.53 2.53Q88.53-1.02 86.31-3.19Q84.08-5.35 80.49-5.35Q76.91-5.35 74.68-3.19Z"/><path fill="#000000" opacity="1" d="M95.35 12.38L95.35-7.32L97.71-7.32L98.03-3.78Q100.63-7.72 105.99-7.72L105.99-7.72Q109.97-7.72 112.09-5.51Q114.22-3.30 114.22 0.87L114.22 0.87L114.22 12.38L111.38 12.38L111.38 0.83Q111.38-5.27 105.99-5.27L105.99-5.27Q103.27-5.27 101.42-4.21Q99.56-3.15 98.18-0.90L98.18-0.90L98.18 12.38L95.35 12.38Z"/><path fill="#000000" opacity="1" d=""/><path fill="#000000" opacity="1" d="M130.97 12.38L130.97-13.23L134.12-13.23L151.85 8.87L151.69 1.03L151.69-13.23L154.49-13.23L154.49 12.38L151.22 12.38L133.49-9.88L133.76-0.82L133.76 12.38L130.97 12.38Z"/><path fill="#000000" opacity="1" d="M177.85 3.16L177.85 3.16L161.30 3.16Q161.50 6.70 163.81 8.50Q166.11 10.29 169.54 10.29L169.54 10.29Q173.64 10.29 176.39 8.83L176.39 8.83L177.22 11.31Q174.03 12.77 169.38 12.77L169.38 12.77Q164.14 12.77 161.28 10.03Q158.43 7.29 158.43 2.57L158.43 2.57Q158.43-2.00 161.46-4.86Q164.50-7.72 169.10-7.72L169.10-7.72Q173.60-7.72 175.88-5.51Q178.17-3.30 178.17 0.36L178.17 0.36Q178.17 1.90 177.85 3.16ZM161.34 0.75L161.34 0.75L175.45 0.75Q175.45-2.48 173.85-3.88Q172.26-5.27 168.79-5.27L168.79-5.27Q165.95-5.27 163.81-3.68Q161.66-2.08 161.34 0.75Z"/><path fill="#000000" opacity="1" d="M182.11 4.18L182.11-7.32L184.94-7.32L184.94 4.22Q184.94 7.14 186.30 8.73Q187.66 10.33 190.22 10.33L190.22 10.33Q192.90 10.33 194.66 9.26Q196.41 8.20 197.83 5.92L197.83 5.92L197.83-7.32L200.66-7.32L200.66 12.38L198.30 12.38L197.99 8.91Q195.19 12.77 190.22 12.77L190.22 12.77Q182.11 12.77 182.11 4.18L182.11 4.18Z"/><path fill="#000000" opacity="1" d="M204.41-5.27L204.41-7.32L207.95-7.32L207.95-8.66Q207.95-12.09 210.04-14.24Q212.13-16.38 215.56-16.38L215.56-16.38Q218.83-16.38 221.39-14.93L221.39-14.93L220.21-12.72Q218.28-13.86 215.87-13.86L215.87-13.86Q210.79-13.86 210.79-8.78L210.79-8.78L210.79-7.32L217.02-7.32L216.86-4.88L210.79-5.08L210.79 12.38L207.95 12.38L207.95-4.84L204.41-5.27Z"/><path fill="#000000" opacity="1" d="M237.46 3.16L237.46 3.16L220.92 3.16Q221.11 6.70 223.42 8.50Q225.72 10.29 229.15 10.29L229.15 10.29Q233.25 10.29 236.01 8.83L236.01 8.83L236.83 11.31Q233.64 12.77 228.99 12.77L228.99 12.77Q223.75 12.77 220.90 10.03Q218.04 7.29 218.04 2.57L218.04 2.57Q218.04-2.00 221.07-4.86Q224.11-7.72 228.72-7.72L228.72-7.72Q233.21-7.72 235.49-5.51Q237.78-3.30 237.78 0.36L237.78 0.36Q237.78 1.90 237.46 3.16ZM220.96 0.75L220.96 0.75L235.06 0.75Q235.06-2.48 233.46-3.88Q231.87-5.27 228.40-5.27L228.40-5.27Q225.56-5.27 223.42-3.68Q221.27-2.08 220.96 0.75Z"/><path fill="#000000" opacity="1" d="M240.93 6.35L240.93-16.38L243.77-16.38L243.77 6.98Q243.77 8.56 244.44 9.28Q245.11 10.01 246.76 10.09L246.76 10.09L246.76 12.53Q246.21 12.61 245.82 12.61L245.82 12.61Q240.93 12.61 240.93 6.35L240.93 6.35Z"/><path fill="#000000" opacity="1" d="M265.83-5.75L265.83-16.38L268.67-16.38L268.67 11.55Q264.41 12.77 258.94 12.77L258.94 12.77Q254.17 12.77 251.43 10.17Q248.69 7.57 248.69 2.57L248.69 2.57Q248.69-2.00 251.67-4.86Q254.64-7.72 259.21-7.72L259.21-7.72Q262.92-7.72 265.83-5.75L265.83-5.75ZM265.83 9.50L265.83 9.50L265.83-2.87Q263.00-5.27 259.53-5.27L259.53-5.27Q256.14-5.27 253.87-3.23Q251.61-1.18 251.61 2.53L251.61 2.53Q251.61 6.39 253.83 8.32Q256.06 10.25 259.76 10.25L259.76 10.25Q263.23 10.25 265.83 9.50Z"/></g></g>
</g>
</svg>